<?xml version="1.0" encoding="utf-8"?>
<!-- Generator: Adobe Illustrator 16.0.0, SVG Export Plug-In . SVG Version: 6.00 Build 0)  -->
<!DOCTYPE svg PUBLIC "-//W3C//DTD SVG 1.1//EN" "http://www.w3.org/Graphics/SVG/1.1/DTD/svg11.dtd">
<svg version="1.1" id="Layer_1" xmlns="http://www.w3.org/2000/svg" xmlns:xlink="http://www.w3.org/1999/xlink" x="0px" y="0px"
	 width="841.89px" height="595.28px" viewBox="0 0 841.89 595.28" enable-background="new 0 0 841.89 595.28" xml:space="preserve">
<text transform="matrix(1 0 0 1 140.2334 355.7021)" fill="#AD9A73" font-family="'JuliusSansOne-Regular'" font-size="65.7708">BANQUINHA DE</text>
<text transform="matrix(1 0 0 1 140.2329 449.9971)" fill="#AD9A73" font-family="'JuliusSansOne-Regular'" font-size="100.7193">CAMISETAS</text>
<path fill="#998B77" d="M539.701,262.272c-20.141-44.231-40.283-88.462-60.424-132.694c-0.58-1.275-1.162-2.55-1.742-3.826
	c-0.236-0.903-0.623-1.76-1.164-2.513c-0.514-1.006-1.297-1.792-2.232-2.355c-1.15-0.909-2.658-1.475-4.539-1.469
	c-36.568,0.111-73.137,0.222-109.707,0.333c-1.135,0.003-2.131,0.219-3,0.586c-1.511,0.573-2.804,1.606-3.476,3.128
	c-19.65,44.529-39.3,89.059-58.95,133.588c-1.017,2.303-2.034,4.607-3.05,6.912c-1.362,3.086-1.24,6.539,0.989,8.91
	c1.209,1.432,3.036,2.387,5.487,2.375c46.884-0.23,93.769-0.463,140.652-0.693c31.352-0.154,62.703-0.309,94.055-0.463
	c2.205-0.01,3.902-0.803,5.102-2.014C540.867,269.761,541.287,265.755,539.701,262.272z M353.212,160.851
	c-0.264,33.043-0.528,66.087-0.792,99.129c-14.349,0.07-28.698,0.143-43.046,0.213C323.987,227.078,338.599,193.965,353.212,160.851
	z M367.421,259.907c0.264-33.026,0.527-66.054,0.791-99.081c14.833,32.953,29.667,65.905,44.5,98.856
	c-6.921,0.035-13.843,0.068-20.764,0.104C383.772,259.825,375.597,259.866,367.421,259.907z M429.035,259.603c0,0,0,0,0-0.002
	c-18.74-41.63-37.479-83.26-56.219-124.891c30.757-0.093,61.514-0.187,92.27-0.28c18.932,41.572,37.861,83.145,56.793,124.716
	C490.93,259.298,459.982,259.45,429.035,259.603z"/>
</svg>
